<?xml version="1.0" encoding="UTF-8" standalone="no"?>
<!-- Created with Inkscape (http://www.inkscape.org/) -->

<svg
   xmlns:ns0="http://www.iki.fi/pav/software/textext/"
   xmlns:dc="http://purl.org/dc/elements/1.1/"
   xmlns:cc="http://creativecommons.org/ns#"
   xmlns:rdf="http://www.w3.org/1999/02/22-rdf-syntax-ns#"
   xmlns:svg="http://www.w3.org/2000/svg"
   xmlns="http://www.w3.org/2000/svg"
   xmlns:sodipodi="http://sodipodi.sourceforge.net/DTD/sodipodi-0.dtd"
   xmlns:inkscape="http://www.inkscape.org/namespaces/inkscape"
   sodipodi:docname="quad_matrix.svg"
   width="739.375"
   height="807.60498"
   id="svg2"
   version="1.1"
   inkscape:version="0.48.3.1 r9886">
  <sodipodi:namedview
     id="base"
     pagecolor="#ffffff"
     bordercolor="#666666"
     borderopacity="1.0"
     inkscape:pageopacity="0.0"
     inkscape:pageshadow="2"
     inkscape:zoom="1.979899"
     inkscape:cx="472.76938"
     inkscape:cy="258.79066"
     inkscape:document-units="px"
     inkscape:current-layer="layer1"
     showgrid="true"
     inkscape:window-width="1855"
     inkscape:window-height="1056"
     inkscape:window-x="65"
     inkscape:window-y="24"
     inkscape:window-maximized="1"
     showguides="true"
     inkscape:guide-bbox="true"
     inkscape:snap-grids="false"
     fit-margin-top="0"
     fit-margin-left="0"
     fit-margin-right="0"
     fit-margin-bottom="0">
    <inkscape:grid
       originy="-227.75px"
       originx="-3.75px"
       snapvisiblegridlinesonly="true"
       enabled="true"
       visible="true"
       empspacing="5"
       id="grid2985"
       type="xygrid" />
  </sodipodi:namedview>
  <defs
     id="defs4">
    <marker
       style="overflow:visible"
       id="Arrow1Mstart"
       refX="0"
       refY="0"
       orient="auto"
       inkscape:stockid="Arrow1Mstart">
      <path
         inkscape:connector-curvature="0"
         transform="matrix(0.4,0,0,0.4,4,0)"
         style="fill-rule:evenodd;stroke:#000000;stroke-width:1pt"
         d="M 0,0 5,-5 -12.5,0 5,5 0,0 z"
         id="path4190" />
    </marker>
    <marker
       style="overflow:visible"
       id="Arrow1Mend"
       refX="0"
       refY="0"
       orient="auto"
       inkscape:stockid="Arrow1Mend">
      <path
         inkscape:connector-curvature="0"
         transform="matrix(-0.4,0,0,-0.4,-4,0)"
         style="fill-rule:evenodd;stroke:#000000;stroke-width:1pt"
         d="M 0,0 5,-5 -12.5,0 5,5 0,0 z"
         id="path4193" />
    </marker>
  </defs>
  <metadata
     id="metadata7">
    <rdf:RDF>
      <cc:Work
         rdf:about="">
        <dc:format>image/svg+xml</dc:format>
        <dc:type
           rdf:resource="http://purl.org/dc/dcmitype/StillImage" />
        <dc:title />
      </cc:Work>
    </rdf:RDF>
  </metadata>
  <g
     transform="translate(-3.75,-17.0072)"
     id="layer1"
     inkscape:groupmode="layer"
     inkscape:label="Layer 1">
    <path
       inkscape:connector-curvature="0"
       id="path5174"
       d="m 60,722.36218 -55,0"
       style="fill:none;stroke:#000000;stroke-width:2.5;stroke-linecap:butt;stroke-linejoin:miter;stroke-miterlimit:4;stroke-opacity:1;stroke-dasharray:none" />
    <g
       id="g5788">
      <path
         inkscape:connector-curvature="0"
         id="path3999"
         title="4.5*(1-pow(fabs(x), 1.5))"
         d="m 60,722.36218 630,0 m -315,0 0,-649.999997 M 60,722.36218 c 1.409396,0.64629 2.818792,-13.68084 4.228188,-13.04323 1.409396,0.63761 2.818792,-13.58374 4.228188,-12.9548 1.409396,0.62893 2.818792,-13.48602 4.228188,-12.86577 1.409396,0.62026 2.818792,-13.38769 4.228188,-12.7761 1.409396,0.61158 2.818792,-13.28872 4.228188,-12.68581 1.409396,0.6029 2.818792,-13.18911 4.228188,-12.59488 1.409395,0.59424 2.818791,-13.08883 4.228187,-12.50327 1.409396,0.58556 2.818792,-12.98788 4.228188,-12.41099 1.409396,0.57688 2.818792,-12.88624 4.228188,-12.31803 1.409396,0.56821 2.818789,-12.78389 4.228189,-12.22435 1.4094,0.55953 2.81879,-12.68081 4.22819,-12.12995 1.40939,0.55085 2.81879,-12.577 4.22819,-12.03482 1.40939,0.54219 2.81879,-12.47242 4.22818,-11.93891 1.4094,0.53351 2.81879,-12.36708 4.22819,-11.84224 1.4094,0.52483 2.81879,-12.26094 4.22819,-11.74478 1.40939,0.51616 2.81879,-12.15397 4.22819,-11.64648 1.40939,0.50748 2.81879,-12.04618 4.22818,-11.54737 1.4094,0.49881 2.8188,-11.93751 4.22819,-11.44738 1.4094,0.49014 2.81879,-11.82798 4.22819,-11.34652 1.4094,0.48146 2.81879,-11.71754 4.22819,-11.24476 1.40939,0.47279 2.81879,-11.60617 4.22819,-11.14206 1.40939,0.46411 2.81879,-11.49384 4.22818,-11.03841 1.4094,0.45544 2.8188,-11.38054 4.22819,-10.93378 1.4094,0.44676 2.81879,-11.26621 4.22819,-10.82813 1.4094,0.43809 2.81879,-11.15086 4.22819,-10.72145 1.40939,0.42941 2.81879,-11.03442 4.22819,-10.61369 1.40939,0.42074 2.81879,-10.91688 4.22818,-10.50482 1.4094,0.41206 2.8188,-10.79821 4.22819,-10.39482 1.4094,0.40338 2.81879,-10.67836 4.22819,-10.28365 1.4094,0.39471 2.81879,-10.55728 4.22819,-10.17124 1.40939,0.38603 2.81879,-10.43496 4.22819,-10.0576 1.40939,0.37736 2.81879,-10.31133 4.22818,-9.94265 1.4094,0.36869 2.8188,-10.18636 4.22819,-9.82635 1.4094,0.36001 2.81879,-10.06 4.22819,-9.70866 1.4094,0.35133 2.81879,-9.93219 4.22819,-9.58953 1.40939,0.34266 2.81879,-9.80289 4.22819,-9.4689 1.40939,0.33398 2.81879,-9.67203 4.22818,-9.34672 1.4094,0.32532 2.81879,-9.53954 4.22819,-9.2229 1.4094,0.31663 2.81879,-9.40538 4.22819,-9.09741 1.40939,0.30796 2.81879,-9.26946 4.22819,-8.97017 1.40939,0.29928 2.81879,-9.1317 4.22818,-8.84109 1.4094,0.29061 2.8188,-8.99203 4.22819,-8.7101 1.4094,0.28194 2.81879,-8.85037 4.22819,-8.5771 1.4094,0.27326 2.81879,-8.70661 4.22819,-8.44202 1.40939,0.26458 2.81879,-8.56065 4.22819,-8.30474 1.40939,0.25591 2.81879,-8.41238 4.22818,-8.16514 1.4094,0.24723 2.8188,-8.26169 4.22819,-8.02313 1.4094,0.23857 2.81879,-8.10842 4.22819,-7.87854 1.4094,0.22989 2.81879,-7.95247 4.22819,-7.73126 1.40939,0.22121 2.81879,-7.79365 4.22819,-7.58111 1.40939,0.21254 2.81879,-7.63179 4.22818,-7.42793 1.4094,0.20386 2.8188,-7.46672 4.22819,-7.27153 1.4094,0.19519 2.81879,-7.29819 4.22819,-7.11168 1.4094,0.18651 2.81879,-7.12599 4.22819,-6.94816 1.40939,0.17784 2.81879,-6.94985 4.22819,-6.78069 1.40939,0.16917 2.81879,-6.76946 4.22818,-6.60898 1.4094,0.16049 2.8188,-6.5845 4.22819,-6.43268 1.4094,0.15181 2.81879,-6.39457 4.22819,-6.25143 1.4094,0.14314 2.81879,-6.19921 4.22819,-6.06474 1.40939,0.13446 2.81879,-5.99792 4.22819,-5.87213 1.40939,0.12578 2.81879,-5.79009 4.22818,-5.67298 1.4094,0.11711 2.8188,-5.57501 4.22819,-5.46658 1.4094,0.10844 2.81879,-5.35181 4.22819,-5.25205 1.40939,0.0998 2.81879,-5.11948 4.22819,-5.02839 1.40939,0.0911 2.81879,-4.87671 4.22818,-4.7943 1.4094,0.0824 2.8188,-4.621897 4.22819,-4.54816 1.4094,0.07374 2.81879,-4.35296 4.22819,-4.287898 1.4094,0.06506 2.81879,-4.067148 4.22819,-4.010761 1.40939,0.05639 2.81879,-3.76067 4.22819,-3.712958 1.40939,0.04771 2.81879,-3.428055 4.22818,-3.389018 1.4094,0.03904 2.8188,-3.060878 4.22819,-3.030515 1.4094,0.03036 2.81879,-2.64485 4.22819,-2.623163 1.4094,0.02169 2.81879,-2.15166 4.22819,-2.138647 1.40939,0.01301 2.81879,-1.503971 4.22819,-1.499634 1.40939,0.0043 2.81879,0.0043 4.22818,0 1.4094,-0.0043 2.8188,1.512646 4.22819,1.499634 1.4094,-0.01301 2.81879,2.160334 4.22819,2.138647 1.4094,-0.02169 2.81879,2.653525 4.22819,2.623163 1.40939,-0.03036 2.81879,3.069553 4.22819,3.030515 1.40939,-0.03904 2.81879,3.436731 4.22818,3.389018 1.4094,-0.04771 2.8188,3.769345 4.22819,3.712958 1.4094,-0.05639 2.81879,4.075823 4.22819,4.010761 1.4094,-0.06506 2.81879,4.361635 4.22819,4.287898 1.40939,-0.07374 2.81879,4.63057 4.22819,4.54816 1.40939,-0.0824 2.81879,4.88538 4.22818,4.7943 1.4094,-0.0911 2.8188,5.12815 4.22819,5.02839 1.4094,-0.0998 2.81879,5.36049 4.22819,5.25205 1.40939,-0.10843 2.81879,5.58369 4.22819,5.46658 1.40939,-0.11711 2.81879,5.79876 4.22818,5.67298 1.4094,-0.12579 2.8188,6.00659 4.22819,5.87213 1.4094,-0.13447 2.81879,6.20788 4.22819,6.06474 1.4094,-0.14314 2.81879,6.40324 4.22819,6.25143 1.40939,-0.15182 2.81879,6.59317 4.22819,6.43268 1.40939,-0.16048 2.81879,6.77815 4.22818,6.60898 1.4094,-0.16916 2.8188,6.95853 4.22819,6.78069 1.4094,-0.17783 2.81879,7.13467 4.22819,6.94816 1.4094,-0.18651 2.81879,7.30687 4.22819,7.11168 1.40939,-0.19519 2.81879,7.47539 4.22819,7.27153 1.40939,-0.20386 2.81879,7.64047 4.22818,7.42793 1.4094,-0.21254 2.8188,7.80232 4.22819,7.58111 1.4094,-0.22121 2.81879,7.96115 4.22819,7.73126 1.4094,-0.22988 2.81879,8.11711 4.22819,7.87854 1.40939,-0.23856 2.81879,8.27036 4.22819,8.02313 1.40939,-0.24724 2.81879,8.42105 4.22818,8.16514 1.4094,-0.25591 2.8188,8.56932 4.22819,8.30474 1.4094,-0.26459 2.81879,8.71528 4.22819,8.44202 1.4094,-0.27327 2.81879,8.85904 4.22819,8.5771 1.40939,-0.28193 2.81879,9.00071 4.22819,8.7101 1.40939,-0.29061 2.81879,9.14037 4.22818,8.84109 1.4094,-0.29929 2.8188,9.27813 4.22819,8.97017 1.4094,-0.30797 2.81879,9.41404 4.22819,9.09741 1.4094,-0.31664 2.81879,9.54822 4.22819,9.2229 1.40939,-0.32531 2.81879,9.6807 4.22818,9.34672 1.4094,-0.33399 2.8188,9.81156 4.22819,9.4689 1.4094,-0.34266 2.81879,9.94086 4.22819,9.58953 1.4094,-0.35134 2.81879,10.06867 4.22819,9.70866 1.40939,-0.36001 2.81879,10.19504 4.22819,9.82635 1.40939,-0.36868 2.81879,10.32001 4.22818,9.94265 1.4094,-0.37736 2.8188,10.44363 4.22819,10.0576 1.4094,-0.38604 2.81879,10.56595 4.22819,10.17124 1.4094,-0.39471 2.81879,10.68703 4.22819,10.28365 1.40939,-0.40339 2.81879,10.80688 4.22819,10.39482 1.40939,-0.41206 2.81879,10.92556 4.22818,10.50482 1.4094,-0.42073 2.8188,11.0431 4.22819,10.61369 1.4094,-0.42941 2.81879,11.15954 4.22819,10.72145 1.4094,-0.43808 2.81879,11.27489 4.22819,10.82813 1.40939,-0.44676 2.81879,11.38922 4.22819,10.93378 1.40939,-0.45543 2.81879,11.50252 4.22818,11.03841 1.4094,-0.46411 2.8188,11.61485 4.22819,11.14206 1.4094,-0.47278 2.81879,11.72622 4.22819,11.24476 1.4094,-0.48146 2.81879,11.83666 4.22819,11.34652 1.40939,-0.49013 2.81879,11.94619 4.22819,11.44738 1.40939,-0.49881 2.81879,12.05485 4.22818,11.54737 1.4094,-0.50749 2.8188,12.16264 4.22819,11.64648 1.4094,-0.51616 2.81879,12.26961 4.22819,11.74478 1.4094,-0.52484 2.81879,12.37575 4.22819,11.84224 1.40939,-0.53351 2.81879,12.4811 4.22818,11.93891 1.4094,-0.54218 2.8188,12.58567 4.22819,12.03482 1.4094,-0.55086 2.81879,12.68948 4.22819,12.12995 1.4094,-0.55954 2.81879,12.79256 4.22819,12.22435 1.40939,-0.56821 2.81879,12.89491 4.22819,12.31803 1.40939,-0.57689 2.81879,12.99655 4.22818,12.41099 1.4094,-0.58556 2.8188,13.09751 4.22819,12.50327 1.4094,-0.59423 2.81879,13.19778 4.22819,12.59488 1.4094,-0.60291 2.81879,13.29739 4.22819,12.68581 1.40939,-0.61159 2.81879,13.39636 4.22819,12.7761 1.40939,-0.62025 2.81879,13.4947 4.22818,12.86577 1.4094,-0.62894 2.8188,13.59241 4.22819,12.9548 1.4094,-0.63761 2.81879,13.68952 4.22819,13.04323"
         style="fill:#ffffff;fill-opacity:1;fill-rule:evenodd;stroke:#000000;stroke-width:2.40906024;stroke-miterlimit:4;stroke-opacity:1;stroke-dasharray:none;stroke-dashoffset:0" />
      <g
         id="content"
         transform="matrix(3.5,0,0,-3.5,-424.745,2579.5822)"
         xml:space="preserve"
         stroke-miterlimit="10.433"
         font-style="normal"
         font-variant="normal"
         font-weight="normal"
         font-stretch="normal"
         font-size-adjust="none"
         letter-spacing="normal"
         word-spacing="normal"
         ns0:text="$b\n$"
         ns0:preamble=""
         style="font-style:normal;font-variant:normal;font-weight:normal;font-stretch:normal;letter-spacing:normal;word-spacing:normal;text-anchor:start;fill:none;stroke:#000000;stroke-linecap:butt;stroke-linejoin:miter;stroke-miterlimit:10.43299961;stroke-opacity:1;stroke-dasharray:none;stroke-dashoffset:0">
<path
   d="m 225.81,713.91 0,0 0,0 0,0 0,0 0,0.01 0,0 0,0 0,0.01 0,0 0,0.01 0,0 -0.01,0 0,0.01 0,0 0,0.01 0,0 -0.01,0.01 0,0 0,0.01 -0.01,0 0,0.01 0,0 -0.01,0 0,0 0,0.01 -0.01,0 0,0 0,0 0,0 -0.01,0.01 0,0 -0.01,0 0,0 0,0 -0.01,0 0,0 -0.01,0 0,0.01 -0.01,0 0,0 -0.01,0 0,0 -0.01,0 0,0 -0.01,0 c -0.23,0 -0.95,-0.08 -1.21,-0.1 -0.08,-0.01 -0.19,-0.02 -0.19,-0.2 0,-0.12 0.09,-0.12 0.24,-0.12 0.47,0 0.49,-0.07 0.49,-0.17 0,-0.07 -0.09,-0.4 -0.13,-0.61 l -0.82,-3.24 c -0.12,-0.5 -0.16,-0.66 -0.16,-1 0,-0.95 0.53,-1.56 1.26,-1.56 v 0.21 c -0.34,0 -0.66,0.27 -0.66,1.01 0,0.19 0,0.37 0.16,1 l 0.22,0.92 c 0.05,0.21 0.05,0.23 0.14,0.34 0.49,0.65 0.94,0.8 1.2,0.8 0.36,0 0.63,-0.3 0.63,-0.94 0,-0.58 -0.33,-1.72 -0.51,-2.1 -0.33,-0.67 -0.79,-1.03 -1.18,-1.03 v -0.21 c 1.18,0 2.4,1.48 2.4,2.91 0,0.9 -0.53,1.59 -1.32,1.59 -0.46,0 -0.87,-0.29 -1.17,-0.6 z"
   id="path4014"
   inkscape:connector-curvature="0"
   style="fill:#000000;stroke-width:0" />
</g>      <g
         ns0:preamble=""
         ns0:text="$x$"
         word-spacing="normal"
         letter-spacing="normal"
         font-size-adjust="none"
         font-stretch="normal"
         font-weight="normal"
         font-variant="normal"
         font-style="normal"
         stroke-miterlimit="10.433"
         xml:space="preserve"
         transform="matrix(3.5,0,0,-3.5,-62.47,3223.0222)"
         id="g4032"
         style="font-style:normal;font-variant:normal;font-weight:normal;font-stretch:normal;letter-spacing:normal;word-spacing:normal;text-anchor:start;fill:none;stroke:#000000;stroke-linecap:butt;stroke-linejoin:miter;stroke-miterlimit:10.43299961;stroke-opacity:1;stroke-dasharray:none;stroke-dashoffset:0">
<path
   id="path4034"
   d="m 226.76,710.12 0,0.03 0.01,0.03 0.01,0.03 0.01,0.04 0.01,0.04 0.01,0.04 0.01,0.04 0.02,0.05 0.01,0.04 0.02,0.05 0.02,0.05 0.02,0.05 0.02,0.05 0.03,0.05 0.02,0.05 0.03,0.05 0.03,0.05 0.03,0.04 0.03,0.05 0.04,0.04 0.04,0.05 0.04,0.04 0.04,0.04 0.04,0.03 0.05,0.03 0.05,0.03 0.02,0.01 0.03,0.02 0.02,0.01 0.03,0.01 0.03,0.01 0.03,0 0.03,0.01 0.02,0.01 0.04,0 0.03,0 0.03,0.01 0.03,0 c 0.05,0 0.29,0 0.5,-0.13 -0.28,-0.05 -0.48,-0.3 -0.48,-0.54 0,-0.16 0.11,-0.35 0.38,-0.35 0.22,0 0.54,0.18 0.54,0.58 0,0.52 -0.59,0.66 -0.93,0.66 -0.58,0 -0.93,-0.53 -1.04,-0.76 -0.25,0.66 -0.79,0.76 -1.08,0.76 -1.03,0 -1.6,-1.29 -1.6,-1.53 0,-0.1 0.1,-0.1 0.12,-0.1 0.08,0 0.11,0.02 0.13,0.11 0.34,1.05 0.99,1.3 1.33,1.3 0.19,0 0.54,-0.09 0.54,-0.67 0,-0.31 -0.17,-0.97 -0.54,-2.36 -0.16,-0.62 -0.51,-1.04 -0.94,-1.04 -0.06,0 -0.29,0 -0.5,0.13 0.25,0.05 0.47,0.26 0.47,0.54 0,0.27 -0.22,0.35 -0.37,0.35 -0.3,0 -0.55,-0.26 -0.55,-0.58 0,-0.46 0.5,-0.65 0.94,-0.65 0.65,0 1.01,0.69 1.04,0.75 0.12,-0.37 0.48,-0.75 1.07,-0.75 1.03,0 1.6,1.28 1.6,1.53 0,0.1 -0.09,0.1 -0.12,0.1 -0.09,0 -0.11,-0.05 -0.13,-0.11 -0.33,-1.07 -1.01,-1.31 -1.33,-1.31 -0.38,0 -0.54,0.32 -0.54,0.66 0,0.22 0.06,0.44 0.17,0.87 z"
   inkscape:connector-curvature="0"
   style="fill:#000000;stroke-width:0" />
</g>      <g
         id="g4056"
         transform="matrix(3.5,0,0,-3.5,-572.82,3237.1722)"
         xml:space="preserve"
         stroke-miterlimit="10.433"
         font-style="normal"
         font-variant="normal"
         font-weight="normal"
         font-stretch="normal"
         font-size-adjust="none"
         letter-spacing="normal"
         word-spacing="normal"
         ns0:text="$q$"
         ns0:preamble=""
         style="font-style:normal;font-variant:normal;font-weight:normal;font-stretch:normal;letter-spacing:normal;word-spacing:normal;text-anchor:start;fill:none;stroke:#000000;stroke-linecap:butt;stroke-linejoin:miter;stroke-miterlimit:10.43299961;stroke-opacity:1;stroke-dasharray:none;stroke-dashoffset:0">
<path
   d="m 227.93,711.41 0,0 0,0 0,0.01 0,0 0,0.01 0,0 -0.01,0 0,0.01 0,0 0,0.01 0,0 0,0.01 -0.01,0 0,0 0,0.01 0,0 -0.01,0 0,0.01 0,0 -0.01,0 0,0.01 -0.01,0 0,0 -0.01,0.01 0,0 -0.01,0 0,0 -0.01,0 0,0 -0.01,0.01 0,0 -0.01,0 c -0.11,0 -0.51,-0.4 -0.68,-0.69 -0.22,0.54 -0.6,0.7 -0.92,0.7 v -0.22 c 0.64,0 0.78,-0.81 0.78,-0.88 0,-0.06 -0.54,-2.23 -0.57,-2.27 -0.15,-0.28 -0.71,-0.92 -1.27,-0.92 h 0 c -0.59,0 -0.63,0.77 -0.63,0.94 0,0.48 0.28,1.56 0.45,1.98 0.31,0.73 0.83,1.15 1.24,1.15 v 0.22 c -1.18,0 -2.4,-1.47 -2.4,-2.92 0,-0.97 0.59,-1.58 1.31,-1.58 0.43,0 0.82,0.23 1.18,0.59 -0.09,-0.35 -0.42,-1.69 -0.45,-1.78 -0.08,-0.28 -0.16,-0.31 -0.72,-0.32 -0.13,0 -0.23,0 -0.23,-0.2 0,-0.01 0,-0.11 0.13,-0.11 0.32,0 0.67,0.03 1,0.03 0.34,0 0.69,-0.03 1.02,-0.03 0.05,0 0.18,0 0.18,0.2 0,0.11 -0.1,0.11 -0.26,0.11 -0.47,0 -0.47,0.07 -0.47,0.15 0,0.07 0.02,0.13 0.04,0.22 z"
   id="path4058"
   inkscape:connector-curvature="0"
   style="fill:#000000;stroke-width:0" />
</g>      <g
         ns0:preamble=""
         ns0:text="$y$"
         word-spacing="normal"
         letter-spacing="normal"
         font-size-adjust="none"
         font-stretch="normal"
         font-weight="normal"
         font-variant="normal"
         font-style="normal"
         stroke-miterlimit="10.433"
         xml:space="preserve"
         transform="matrix(3.5,0,0,-3.5,-429.775,2507.3272)"
         id="g4084"
         style="font-style:normal;font-variant:normal;font-weight:normal;font-stretch:normal;letter-spacing:normal;word-spacing:normal;text-anchor:start;fill:none;stroke:#000000;stroke-linecap:butt;stroke-linejoin:miter;stroke-miterlimit:10.43299961;stroke-opacity:1;stroke-dasharray:none;stroke-dashoffset:0">
<path
   id="path4086"
   d="m 228.27,710.91 0,0.01 0,0 0,0.01 0,0 0.01,0.02 0,0.01 0,0.01 0.01,0.01 0,0.01 0,0 0,0.01 0,0.01 0.01,0.01 0,0.01 0,0 0,0.01 0,0 0,0.01 0,0.01 0,0 0,0.01 0,0 0.01,0.01 0,0.01 0,0.01 0,0.01 0,0.01 0,0.01 0,0 0,0.01 c 0,0.18 -0.14,0.27 -0.29,0.27 -0.1,0 -0.26,-0.06 -0.35,-0.21 -0.02,-0.05 -0.1,-0.36 -0.14,-0.54 -0.07,-0.26 -0.14,-0.52 -0.2,-0.79 l -0.45,-1.79 c -0.03,-0.15 -0.46,-0.85 -1.12,-0.85 -0.51,0 -0.62,0.44 -0.62,0.81 0,0.46 0.17,1.07 0.51,1.95 0.16,0.4 0.2,0.51 0.2,0.71 0,0.45 -0.32,0.82 -0.82,0.82 -0.94,0 -1.31,-1.44 -1.31,-1.53 0,-0.1 0.1,-0.1 0.12,-0.1 0.1,0 0.11,0.02 0.16,0.18 0.27,0.93 0.67,1.23 1,1.23 0.08,0 0.25,0 0.25,-0.32 0,-0.25 -0.1,-0.51 -0.17,-0.7 -0.39,-1.05 -0.57,-1.62 -0.57,-2.08 0,-0.89 0.62,-1.18 1.21,-1.18 0.39,0 0.73,0.16 1.01,0.44 -0.13,-0.51 -0.25,-1 -0.65,-1.53 -0.26,-0.34 -0.64,-0.62 -1.1,-0.62 -0.13,0 -0.58,0.03 -0.75,0.41 0.16,0 0.29,0 0.43,0.12 0.1,0.09 0.19,0.22 0.19,0.41 0,0.31 -0.26,0.35 -0.36,0.35 -0.23,0 -0.56,-0.16 -0.56,-0.65 0,-0.49 0.44,-0.86 1.05,-0.86 1.03,0 2.05,0.9 2.33,2.02 z"
   inkscape:connector-curvature="0"
   style="fill:#000000;stroke-width:0" />
</g>      <g
         id="g4116"
         transform="matrix(3.5,0,0,-3.5,-252.575,3294.5222)"
         xml:space="preserve"
         stroke-miterlimit="10.433"
         font-style="normal"
         font-variant="normal"
         font-weight="normal"
         font-stretch="normal"
         font-size-adjust="none"
         letter-spacing="normal"
         word-spacing="normal"
         ns0:text="$a$"
         ns0:preamble=""
         style="font-style:normal;font-variant:normal;font-weight:normal;font-stretch:normal;letter-spacing:normal;word-spacing:normal;text-anchor:start;fill:none;stroke:#000000;stroke-linecap:butt;stroke-linejoin:miter;stroke-miterlimit:10.43299961;stroke-opacity:1;stroke-dasharray:none;stroke-dashoffset:0">
<path
   d="m 227.14,710.88 -0.01,0.03 -0.02,0.04 -0.02,0.03 -0.02,0.03 -0.02,0.03 -0.02,0.03 -0.02,0.03 -0.02,0.03 -0.03,0.03 -0.02,0.03 -0.02,0.03 -0.03,0.02 -0.02,0.03 -0.03,0.02 -0.03,0.02 -0.02,0.03 -0.03,0.02 -0.03,0.02 -0.03,0.01 -0.03,0.02 -0.04,0.02 -0.03,0.01 -0.03,0.02 -0.04,0.01 -0.03,0.01 -0.04,0.01 -0.03,0.01 -0.04,0 -0.04,0.01 -0.04,0 -0.04,0.01 -0.04,0 c -1.17,0 -2.4,-1.47 -2.4,-2.92 0,-0.93 0.55,-1.58 1.32,-1.58 l 0.02,0.21 c -0.49,0 -0.63,0.55 -0.63,0.94 0,0.49 0.31,1.72 0.54,2.17 0.31,0.59 0.76,0.96 1.16,0.96 0.64,0 0.78,-0.82 0.78,-0.88 0,-0.06 -0.02,-0.12 -0.03,-0.17 l -0.49,-1.94 c -0.05,-0.18 -0.05,-0.2 -0.2,-0.37 -0.44,-0.55 -0.85,-0.71 -1.13,-0.71 l -0.02,-0.21 c 0.2,0 0.7,0.03 1.3,0.74 0.08,-0.42 0.42,-0.74 0.9,-0.74 0.35,0 0.58,0.22 0.74,0.54 0.17,0.36 0.3,0.97 0.3,0.99 0,0.1 -0.09,0.1 -0.12,0.1 -0.1,0 -0.11,-0.05 -0.14,-0.18 -0.17,-0.65 -0.35,-1.24 -0.76,-1.24 -0.27,0 -0.3,0.26 -0.3,0.46 0,0.22 0.02,0.3 0.13,0.74 0.11,0.41 0.13,0.51 0.22,0.89 l 0.36,1.39 c 0.07,0.28 0.07,0.3 0.07,0.34 0,0.17 -0.12,0.27 -0.29,0.27 -0.24,0 -0.39,-0.22 -0.42,-0.44 z"
   id="path4118"
   inkscape:connector-curvature="0"
   style="fill:#000000;stroke-width:0" />
</g>      <path
         style="fill:none;stroke:#000000;stroke-width:2.5;stroke-linecap:butt;stroke-linejoin:miter;stroke-miterlimit:4;stroke-opacity:1;stroke-dasharray:none;marker-end:url(#Arrow1Mend)"
         d="m 690,722.36218 c 50,0 50,0 50,0"
         id="path4178"
         inkscape:connector-curvature="0" />
      <path
         style="fill:none;stroke:#000000;stroke-width:2.5;stroke-linecap:butt;stroke-linejoin:miter;stroke-miterlimit:4;stroke-opacity:1;stroke-dasharray:none;marker-end:url(#Arrow1Mend)"
         d="m 375,72.362183 0,-45"
         id="path4808"
         inkscape:connector-curvature="0" />
      <path
         style="fill:none;stroke:#000000;stroke-width:1px;stroke-linecap:butt;stroke-linejoin:miter;stroke-opacity:1"
         d="m 375,722.36218 0,100 0,0"
         id="path5176"
         inkscape:connector-curvature="0" />
      <path
         style="fill:none;stroke:#000000;stroke-width:1px;stroke-linecap:butt;stroke-linejoin:miter;stroke-opacity:1"
         d="m 690,722.36218 0,100"
         id="path5178"
         inkscape:connector-curvature="0" />
      <path
         style="fill:none;stroke:#000000;stroke-width:1px;stroke-linecap:butt;stroke-linejoin:miter;stroke-opacity:1;marker-start:url(#Arrow1Mstart);marker-end:url(#Arrow1Mend)"
         d="m 375,822.36218 315,0"
         id="path5180"
         inkscape:connector-curvature="0" />
      <path
         style="fill:none;stroke:#000000;stroke-width:1.5;stroke-linecap:butt;stroke-linejoin:miter;stroke-miterlimit:4;stroke-opacity:1;stroke-dasharray:none;marker-start:url(#Arrow1Mstart)"
         d="m 80,726.36218 0,35"
         id="path5552"
         inkscape:connector-curvature="0" />
      <path
         inkscape:connector-curvature="0"
         id="path5738"
         d="m 105,726.36218 0,35"
         style="fill:none;stroke:#000000;stroke-width:1.5;stroke-linecap:butt;stroke-linejoin:miter;stroke-miterlimit:4;stroke-opacity:1;stroke-dasharray:none;marker-start:url(#Arrow1Mstart)" />
      <path
         style="fill:none;stroke:#000000;stroke-width:1.5;stroke-linecap:butt;stroke-linejoin:miter;stroke-miterlimit:4;stroke-opacity:1;stroke-dasharray:none;marker-start:url(#Arrow1Mstart)"
         d="m 130,726.36218 0,35"
         id="path5740"
         inkscape:connector-curvature="0" />
      <path
         inkscape:connector-curvature="0"
         id="path5742"
         d="m 155,726.36218 0,35"
         style="fill:none;stroke:#000000;stroke-width:1.5;stroke-linecap:butt;stroke-linejoin:miter;stroke-miterlimit:4;stroke-opacity:1;stroke-dasharray:none;marker-start:url(#Arrow1Mstart)" />
      <path
         style="fill:none;stroke:#000000;stroke-width:1.5;stroke-linecap:butt;stroke-linejoin:miter;stroke-miterlimit:4;stroke-opacity:1;stroke-dasharray:none;marker-start:url(#Arrow1Mstart)"
         d="m 180,726.36218 0,35"
         id="path5744"
         inkscape:connector-curvature="0" />
      <path
         inkscape:connector-curvature="0"
         id="path5746"
         d="m 205,726.36218 0,35"
         style="fill:none;stroke:#000000;stroke-width:1.5;stroke-linecap:butt;stroke-linejoin:miter;stroke-miterlimit:4;stroke-opacity:1;stroke-dasharray:none;marker-start:url(#Arrow1Mstart)" />
      <path
         style="fill:none;stroke:#000000;stroke-width:1.5;stroke-linecap:butt;stroke-linejoin:miter;stroke-miterlimit:4;stroke-opacity:1;stroke-dasharray:none;marker-start:url(#Arrow1Mstart)"
         d="m 230,726.36218 0,35"
         id="path5748"
         inkscape:connector-curvature="0" />
      <path
         inkscape:connector-curvature="0"
         id="path5750"
         d="m 255,726.36218 0,35"
         style="fill:none;stroke:#000000;stroke-width:1.5;stroke-linecap:butt;stroke-linejoin:miter;stroke-miterlimit:4;stroke-opacity:1;stroke-dasharray:none;marker-start:url(#Arrow1Mstart)" />
      <path
         style="fill:none;stroke:#000000;stroke-width:1.5;stroke-linecap:butt;stroke-linejoin:miter;stroke-miterlimit:4;stroke-opacity:1;stroke-dasharray:none;marker-start:url(#Arrow1Mstart)"
         d="m 280,726.36218 0,35"
         id="path5752"
         inkscape:connector-curvature="0" />
      <path
         inkscape:connector-curvature="0"
         id="path5754"
         d="m 305,726.36218 0,35"
         style="fill:none;stroke:#000000;stroke-width:1.5;stroke-linecap:butt;stroke-linejoin:miter;stroke-miterlimit:4;stroke-opacity:1;stroke-dasharray:none;marker-start:url(#Arrow1Mstart)" />
      <path
         style="fill:none;stroke:#000000;stroke-width:1.5;stroke-linecap:butt;stroke-linejoin:miter;stroke-miterlimit:4;stroke-opacity:1;stroke-dasharray:none;marker-start:url(#Arrow1Mstart)"
         d="m 330,726.36218 0,35"
         id="path5756"
         inkscape:connector-curvature="0" />
      <path
         inkscape:connector-curvature="0"
         id="path5758"
         d="m 355,726.36218 0,35"
         style="fill:none;stroke:#000000;stroke-width:1.5;stroke-linecap:butt;stroke-linejoin:miter;stroke-miterlimit:4;stroke-opacity:1;stroke-dasharray:none;marker-start:url(#Arrow1Mstart)" />
      <path
         style="fill:none;stroke:#000000;stroke-width:1.5;stroke-linecap:butt;stroke-linejoin:miter;stroke-miterlimit:4;stroke-opacity:1;stroke-dasharray:none;marker-start:url(#Arrow1Mstart)"
         d="m 380,726.36218 0,35"
         id="path5760"
         inkscape:connector-curvature="0" />
      <path
         inkscape:connector-curvature="0"
         id="path5762"
         d="m 405,726.36218 0,35"
         style="fill:none;stroke:#000000;stroke-width:1.5;stroke-linecap:butt;stroke-linejoin:miter;stroke-miterlimit:4;stroke-opacity:1;stroke-dasharray:none;marker-start:url(#Arrow1Mstart)" />
      <path
         style="fill:none;stroke:#000000;stroke-width:1.5;stroke-linecap:butt;stroke-linejoin:miter;stroke-miterlimit:4;stroke-opacity:1;stroke-dasharray:none;marker-start:url(#Arrow1Mstart)"
         d="m 430,726.36218 0,35"
         id="path5764"
         inkscape:connector-curvature="0" />
      <path
         inkscape:connector-curvature="0"
         id="path5766"
         d="m 455,726.36218 0,35"
         style="fill:none;stroke:#000000;stroke-width:1.5;stroke-linecap:butt;stroke-linejoin:miter;stroke-miterlimit:4;stroke-opacity:1;stroke-dasharray:none;marker-start:url(#Arrow1Mstart)" />
      <path
         style="fill:none;stroke:#000000;stroke-width:1.5;stroke-linecap:butt;stroke-linejoin:miter;stroke-miterlimit:4;stroke-opacity:1;stroke-dasharray:none;marker-start:url(#Arrow1Mstart)"
         d="m 480,726.36218 0,35"
         id="path5768"
         inkscape:connector-curvature="0" />
      <path
         inkscape:connector-curvature="0"
         id="path5770"
         d="m 505,726.36218 0,35"
         style="fill:none;stroke:#000000;stroke-width:1.5;stroke-linecap:butt;stroke-linejoin:miter;stroke-miterlimit:4;stroke-opacity:1;stroke-dasharray:none;marker-start:url(#Arrow1Mstart)" />
      <path
         style="fill:none;stroke:#000000;stroke-width:1.5;stroke-linecap:butt;stroke-linejoin:miter;stroke-miterlimit:4;stroke-opacity:1;stroke-dasharray:none;marker-start:url(#Arrow1Mstart)"
         d="m 530,726.36218 0,35"
         id="path5772"
         inkscape:connector-curvature="0" />
      <path
         inkscape:connector-curvature="0"
         id="path5774"
         d="m 555,726.36218 0,35"
         style="fill:none;stroke:#000000;stroke-width:1.5;stroke-linecap:butt;stroke-linejoin:miter;stroke-miterlimit:4;stroke-opacity:1;stroke-dasharray:none;marker-start:url(#Arrow1Mstart)" />
      <path
         style="fill:none;stroke:#000000;stroke-width:1.5;stroke-linecap:butt;stroke-linejoin:miter;stroke-miterlimit:4;stroke-opacity:1;stroke-dasharray:none;marker-start:url(#Arrow1Mstart)"
         d="m 580,726.36218 0,35"
         id="path5776"
         inkscape:connector-curvature="0" />
      <path
         inkscape:connector-curvature="0"
         id="path5778"
         d="m 605,726.36218 0,35"
         style="fill:none;stroke:#000000;stroke-width:1.5;stroke-linecap:butt;stroke-linejoin:miter;stroke-miterlimit:4;stroke-opacity:1;stroke-dasharray:none;marker-start:url(#Arrow1Mstart)" />
      <path
         style="fill:none;stroke:#000000;stroke-width:1.5;stroke-linecap:butt;stroke-linejoin:miter;stroke-miterlimit:4;stroke-opacity:1;stroke-dasharray:none;marker-start:url(#Arrow1Mstart)"
         d="m 630,726.36218 0,35"
         id="path5780"
         inkscape:connector-curvature="0" />
      <path
         inkscape:connector-curvature="0"
         id="path5782"
         d="m 655,726.36218 0,35"
         style="fill:none;stroke:#000000;stroke-width:1.5;stroke-linecap:butt;stroke-linejoin:miter;stroke-miterlimit:4;stroke-opacity:1;stroke-dasharray:none;marker-start:url(#Arrow1Mstart)" />
      <path
         style="fill:none;stroke:#000000;stroke-width:1.5;stroke-linecap:butt;stroke-linejoin:miter;stroke-miterlimit:4;stroke-opacity:1;stroke-dasharray:none;marker-start:url(#Arrow1Mstart)"
         d="m 680,726.36218 0,35"
         id="path5784"
         inkscape:connector-curvature="0" />
      <path
         inkscape:connector-curvature="0"
         id="path5786"
         d="m 680,726.36218 0,35"
         style="fill:none;stroke:#000000;stroke-width:1.5;stroke-linecap:butt;stroke-linejoin:miter;stroke-miterlimit:4;stroke-opacity:1;stroke-dasharray:none;marker-start:url(#Arrow1Mstart)" />
    </g>
    <path
       sodipodi:open="true"
       transform="matrix(0.95422443,0,0,1.0241606,-1.2043641,185.74084)"
       sodipodi:end="5.8440657"
       sodipodi:start="3.562599"
       d="M 136.75562,330.63151 C 200.62001,192.8247 368.01227,131.13374 510.6367,192.84089 c 61.82746,26.74995 111.67047,74.04482 140.47087,133.28955"
       sodipodi:ry="273.39462"
       sodipodi:rx="282.9523"
       sodipodi:cy="442.36218"
       sodipodi:cx="395"
       id="path5874"
       style="fill:none;stroke:#000000;stroke-width:1.5;stroke-miterlimit:4;stroke-opacity:1;stroke-dasharray:12, 1.5;stroke-dashoffset:0"
       sodipodi:type="arc" />
    <path
       sodipodi:nodetypes="cc"
       inkscape:connector-curvature="0"
       id="path5879"
       d="M 375.71429,638.07647 619.64286,517.36218"
       style="fill:none;stroke:#000000;stroke-width:1px;stroke-linecap:butt;stroke-linejoin:miter;stroke-opacity:1" />
    <g
       ns0:preamble=""
       ns0:text="$\\rho$"
       word-spacing="normal"
       letter-spacing="normal"
       font-size-adjust="none"
       font-stretch="normal"
       font-weight="normal"
       font-variant="normal"
       font-style="normal"
       stroke-miterlimit="10.433"
       xml:space="preserve"
       transform="matrix(3.5,0,0,-3.5,-291.42857,3075.7143)"
       id="g5943"
       style="font-style:normal;font-variant:normal;font-weight:normal;font-stretch:normal;letter-spacing:normal;word-spacing:normal;text-anchor:start;fill:none;stroke:#000000;stroke-linecap:butt;stroke-linejoin:miter;stroke-miterlimit:10.43299961;stroke-opacity:1;stroke-dasharray:none;stroke-dashoffset:0">
<path
   id="path5945"
   d="m 223.76,705.41 0,-0.01 0,0 0,-0.01 -0.01,-0.01 0,0 0,0 0,-0.01 0,0 0,-0.01 0,0 0,-0.01 0,0 0,-0.01 -0.01,0 0,-0.01 0,0 0,-0.01 0,-0.01 0,0 0,-0.01 0,0 -0.01,-0.01 0,0 0,0 0,-0.01 0,0 0,-0.01 0,0 0,0 0,0 0,-0.01 0,0 0,0 0,-0.01 0,0 0,0 c 0,-0.15 0.11,-0.27 0.28,-0.27 0.21,0 0.33,0.18 0.35,0.21 0.05,0.09 0.37,1.42 0.63,2.49 0.2,-0.4 0.52,-0.66 0.99,-0.66 l -0.01,0.21 c -0.7,0 -0.86,0.8 -0.86,0.89 0,0.04 0.05,0.24 0.08,0.37 0.28,1.11 0.38,1.47 0.6,1.86 0.43,0.73 0.92,0.95 1.23,0.95 0.37,0 0.69,-0.29 0.69,-0.98 0,-0.54 -0.29,-1.66 -0.56,-2.14 -0.33,-0.63 -0.8,-0.95 -1.18,-0.95 h 0 l 0.01,-0.21 c 1.16,0 2.45,1.4 2.45,2.88 0,1.05 -0.66,1.62 -1.39,1.62 -0.96,0 -2.01,-1 -2.3,-2.21 z"
   inkscape:connector-curvature="0"
   style="fill:#000000;stroke-width:0" />
</g>    <path
       style="fill:none;stroke:#000000;stroke-width:1px;stroke-linecap:butt;stroke-linejoin:miter;stroke-opacity:1"
       d="m 375.98214,602.18361 c 22.66098,0.71248 28.23724,9.847 34.46429,18.66071 l 0,0"
       id="path6009"
       inkscape:connector-curvature="0"
       sodipodi:nodetypes="ccc" />
    <g
       style="font-style:normal;font-variant:normal;font-weight:normal;font-stretch:normal;letter-spacing:normal;word-spacing:normal;text-anchor:start;fill:none;stroke:#000000;stroke-linecap:butt;stroke-linejoin:miter;stroke-miterlimit:10.43299961;stroke-opacity:1;stroke-dasharray:none;stroke-dashoffset:0"
       id="g6074"
       transform="matrix(3.5,0,0,-3.5,-382.85714,3067.8571)"
       xml:space="preserve"
       stroke-miterlimit="10.433"
       font-style="normal"
       font-variant="normal"
       font-weight="normal"
       font-stretch="normal"
       font-size-adjust="none"
       letter-spacing="normal"
       word-spacing="normal"
       ns0:text="$\\alpha$"
       ns0:preamble="">
<path
   style="fill:#000000;stroke-width:0"
   inkscape:connector-curvature="0"
   d="m 228.18,709.47 0,0.07 0,0.07 -0.01,0.07 0,0.07 -0.02,0.13 -0.01,0.12 -0.03,0.12 -0.02,0.12 -0.03,0.1 -0.04,0.11 -0.04,0.09 -0.04,0.1 -0.04,0.08 -0.05,0.08 -0.06,0.08 -0.05,0.07 -0.06,0.07 -0.06,0.06 -0.06,0.05 -0.06,0.06 -0.07,0.05 -0.06,0.04 -0.07,0.04 -0.07,0.04 -0.07,0.03 -0.07,0.03 -0.08,0.02 -0.07,0.02 -0.07,0.02 -0.07,0.01 -0.07,0.01 -0.07,0.01 -0.07,0 -0.07,0.01 c -1.37,0 -2.68,-1.43 -2.68,-2.83 0,-0.92 0.6,-1.67 1.61,-1.67 l 0.02,0.21 c -0.59,0 -0.89,0.45 -0.89,1.09 0,0.48 0.26,1.56 0.57,2.06 0.47,0.73 1.01,0.92 1.36,0.92 0.98,0 0.98,-1.3 0.98,-2.08 0,-0.37 0,-0.94 0.02,-1.11 h 0 c -0.87,-0.77 -1.64,-0.88 -2.04,-0.88 l -0.02,-0.21 c 0.63,0 1.34,0.22 2.1,0.83 0.13,-0.53 0.46,-0.83 0.91,-0.83 0.52,0 0.83,0.54 0.83,0.7 0,0.07 -0.06,0.1 -0.12,0.1 -0.07,0 -0.1,-0.03 -0.13,-0.1 -0.18,-0.49 -0.53,-0.49 -0.55,-0.49 -0.31,0 -0.31,0.78 -0.31,1.02 0,0.21 0,0.23 0.1,0.34 0.93,1.18 1.14,2.33 1.14,2.34 0,0.02 -0.01,0.1 -0.12,0.1 -0.1,0 -0.1,-0.03 -0.15,-0.21 -0.18,-0.62 -0.5,-1.38 -0.97,-1.97 z"
   id="path6076" />
</g>    <path
       inkscape:connector-curvature="0"
       id="path6141"
       d="m 620.35714,518.79075 0,203.92857"
       style="fill:none;stroke:#000000;stroke-width:1;stroke-linecap:butt;stroke-linejoin:miter;stroke-miterlimit:4;stroke-opacity:1;stroke-dasharray:4, 4;stroke-dashoffset:0" />
    <g
       style="font-style:normal;font-variant:normal;font-weight:normal;font-stretch:normal;letter-spacing:normal;word-spacing:normal;text-anchor:start;fill:none;stroke:#000000;stroke-linecap:butt;stroke-linejoin:miter;stroke-miterlimit:10.43299961;stroke-opacity:1;stroke-dasharray:none;stroke-dashoffset:0"
       id="g4152"
       transform="matrix(3.5,0,0,-3.5,-157.44643,3181.2086)"
       xml:space="preserve"
       stroke-miterlimit="10.433"
       font-style="normal"
       font-variant="normal"
       font-weight="normal"
       font-stretch="normal"
       font-size-adjust="none"
       letter-spacing="normal"
       word-spacing="normal"
       ns0:text="$x_0$"
       ns0:preamble="">
<path
   style="fill:#000000;stroke-width:0"
   inkscape:connector-curvature="0"
   d="m 226.76,710.12 0,0.03 0.01,0.03 0.01,0.03 0.01,0.04 0.01,0.04 0.01,0.04 0.01,0.04 0.02,0.05 0.01,0.04 0.02,0.05 0.02,0.05 0.02,0.05 0.02,0.05 0.03,0.05 0.02,0.05 0.03,0.05 0.03,0.05 0.03,0.04 0.03,0.05 0.04,0.04 0.04,0.05 0.04,0.04 0.04,0.04 0.04,0.03 0.05,0.03 0.05,0.03 0.02,0.01 0.03,0.02 0.02,0.01 0.03,0.01 0.03,0.01 0.03,0 0.03,0.01 0.02,0.01 0.04,0 0.03,0 0.03,0.01 0.03,0 c 0.05,0 0.29,0 0.5,-0.13 -0.28,-0.05 -0.48,-0.3 -0.48,-0.54 0,-0.16 0.11,-0.35 0.38,-0.35 0.22,0 0.54,0.18 0.54,0.58 0,0.52 -0.59,0.66 -0.93,0.66 -0.58,0 -0.93,-0.53 -1.04,-0.76 -0.25,0.66 -0.79,0.76 -1.08,0.76 -1.03,0 -1.6,-1.29 -1.6,-1.53 0,-0.1 0.1,-0.1 0.12,-0.1 0.08,0 0.11,0.02 0.13,0.11 0.34,1.05 0.99,1.3 1.33,1.3 0.19,0 0.54,-0.09 0.54,-0.67 0,-0.31 -0.17,-0.97 -0.54,-2.36 -0.16,-0.62 -0.51,-1.04 -0.94,-1.04 -0.06,0 -0.29,0 -0.5,0.13 0.25,0.05 0.47,0.26 0.47,0.54 0,0.27 -0.22,0.35 -0.37,0.35 -0.3,0 -0.55,-0.26 -0.55,-0.58 0,-0.46 0.5,-0.65 0.94,-0.65 0.65,0 1.01,0.69 1.04,0.75 0.12,-0.37 0.48,-0.75 1.07,-0.75 1.03,0 1.6,1.28 1.6,1.53 0,0.1 -0.09,0.1 -0.12,0.1 -0.09,0 -0.11,-0.05 -0.13,-0.11 -0.33,-1.07 -1.01,-1.31 -1.33,-1.31 -0.38,0 -0.54,0.32 -0.54,0.66 0,0.22 0.06,0.44 0.17,0.87 z"
   id="path4154" />
<path
   style="fill:#000000;stroke-width:0"
   inkscape:connector-curvature="0"
   d="m 232.72,707.85 0,0.14 0,0.14 -0.01,0.13 -0.01,0.12 -0.01,0.13 -0.02,0.12 -0.01,0.11 -0.03,0.11 -0.02,0.11 -0.03,0.11 -0.03,0.1 -0.04,0.1 -0.04,0.1 -0.05,0.09 -0.05,0.1 -0.03,0.04 -0.03,0.05 c -0.22,0.32 -0.65,0.6 -1.21,0.6 v -0.2 c 0.38,0 0.74,-0.23 0.87,-0.63 0.11,-0.38 0.12,-0.88 0.12,-1.48 0,-0.52 0,-1.03 -0.1,-1.47 -0.13,-0.63 -0.61,-0.78 -0.89,-0.78 h 0 c -0.32,0 -0.74,0.18 -0.88,0.76 -0.1,0.4 -0.1,0.97 -0.1,1.49 0,0.51 0,1.04 0.11,1.42 0.14,0.55 0.59,0.69 0.87,0.69 v 0.2 c -1.61,0 -1.61,-1.9 -1.61,-2.4 0,-0.5 0,-2.36 1.61,-2.36 1.62,0 1.62,1.86 1.62,2.36 z"
   id="path4156" />
</g>    <path
       sodipodi:open="true"
       transform="translate(-14.285714,-4.2857143)"
       sodipodi:end="5.8440657"
       sodipodi:start="3.6057646"
       d="m 244.37435,282.36494 c 40.26614,-84.30707 138.10712,-118.43446 218.53395,-76.22565 32.7061,17.16449 58.94791,45.37027 74.49799,80.0735"
       sodipodi:ry="170.71429"
       sodipodi:rx="162.85715"
       sodipodi:cy="358.79074"
       sodipodi:cx="390"
       id="path6143"
       style="fill:none;stroke:#000000;stroke-width:1;stroke-miterlimit:4;stroke-opacity:1;stroke-dasharray:4, 4;stroke-dashoffset:0"
       sodipodi:type="arc" />
    <path
       sodipodi:nodetypes="cc"
       inkscape:connector-curvature="0"
       id="path6147"
       d="M 521.42857,281.6479 374.28571,354.50504"
       style="fill:none;stroke:#000000;stroke-width:1px;stroke-linecap:butt;stroke-linejoin:miter;stroke-opacity:1" />
    <g
       style="font-style:normal;font-variant:normal;font-weight:normal;font-stretch:normal;letter-spacing:normal;word-spacing:normal;text-anchor:start;fill:none;stroke:#000000;stroke-linecap:butt;stroke-linejoin:miter;stroke-miterlimit:10.43299961;stroke-opacity:1;stroke-dasharray:none;stroke-dashoffset:0"
       id="g6363"
       transform="matrix(2.5,0,0,-2.5,-500,1875)"
       xml:space="preserve"
       stroke-miterlimit="10.433"
       font-style="normal"
       font-variant="normal"
       font-weight="normal"
       font-stretch="normal"
       font-size-adjust="none"
       letter-spacing="normal"
       word-spacing="normal"
       ns0:text="$\\rho+d\\rho$"
       ns0:preamble="">



<g
   transform="matrix(0.94262597,0.33385069,-0.33385069,0.94262597,402.19822,-125.95615)"
   id="g6443"><path
     style="fill:#000000;stroke-width:0"
     inkscape:connector-curvature="0"
     id="path6365"
     d="m 223.76,705.41 0,-0.01 0,0 0,-0.01 -0.01,-0.01 0,0 0,0 0,-0.01 0,0 0,-0.01 0,0 0,-0.01 0,0 0,-0.01 -0.01,0 0,-0.01 0,0 0,-0.01 0,-0.01 0,0 0,-0.01 0,0 -0.01,-0.01 0,0 0,0 0,-0.01 0,0 0,-0.01 0,0 0,0 0,0 0,-0.01 0,0 0,0 0,-0.01 0,0 0,0 c 0,-0.15 0.11,-0.27 0.28,-0.27 0.21,0 0.33,0.18 0.35,0.21 0.05,0.09 0.37,1.42 0.63,2.49 0.2,-0.4 0.52,-0.66 0.99,-0.66 l -0.01,0.21 c -0.7,0 -0.86,0.8 -0.86,0.89 0,0.04 0.05,0.24 0.08,0.37 0.28,1.11 0.38,1.47 0.6,1.86 0.43,0.73 0.92,0.95 1.23,0.95 0.37,0 0.69,-0.29 0.69,-0.98 0,-0.54 -0.29,-1.66 -0.56,-2.14 -0.33,-0.63 -0.8,-0.95 -1.18,-0.95 h 0 l 0.01,-0.21 c 1.16,0 2.45,1.4 2.45,2.88 0,1.05 -0.66,1.62 -1.39,1.62 -0.96,0 -2.01,-1 -2.3,-2.21 z" /><path
     style="fill:#000000;stroke-width:0"
     inkscape:connector-curvature="0"
     id="path6367"
     d="m 234.87,709.41 h 2.77 c 0.14,0 0.33,0 0.33,0.2 0,0.2 -0.19,0.2 -0.33,0.2 h -2.77 v 2.78 c 0,0.14 0,0.33 -0.2,0.33 -0.2,0 -0.2,-0.19 -0.2,-0.33 v -2.78 h -2.79 c -0.14,0 -0.33,0 -0.33,-0.2 0,-0.2 0.19,-0.2 0.33,-0.2 h 2.79 v -2.78 c 0,-0.14 0,-0.33 0.2,-0.33 0.2,0 0.2,0.19 0.2,0.33 z" /><path
     style="fill:#000000;stroke-width:0"
     inkscape:connector-curvature="0"
     id="path6369"
     d="m 245.89,713.91 0,0 0,0 0,0 0,0 0,0.01 0,0 0,0 0,0.01 0,0 0,0.01 0,0 0,0 0,0.01 -0.01,0 0,0.01 0,0 0,0.01 -0.01,0 0,0.01 0,0 -0.01,0.01 0,0 0,0 -0.01,0 0,0.01 0,0 0,0 -0.01,0 0,0 0,0.01 -0.01,0 0,0 -0.01,0 0,0 0,0 -0.01,0 0,0 -0.01,0.01 0,0 -0.01,0 0,0 -0.01,0 0,0 -0.01,0 -0.01,0 c -0.15,0 -1.09,-0.09 -1.26,-0.11 -0.08,-0.01 -0.14,-0.06 -0.14,-0.19 0,-0.12 0.09,-0.12 0.24,-0.12 0.48,0 0.5,-0.07 0.5,-0.17 l -0.03,-0.2 -0.6,-2.35 c -0.18,0.37 -0.47,0.64 -0.92,0.64 -1.16,0 -2.39,-1.47 -2.39,-2.92 0,-0.93 0.54,-1.58 1.32,-1.58 l 0.02,0.21 c -0.5,0 -0.64,0.55 -0.64,0.94 0,0.49 0.32,1.72 0.55,2.17 0.31,0.59 0.76,0.96 1.16,0.96 0.64,0 0.78,-0.82 0.78,-0.88 0,-0.06 -0.02,-0.12 -0.03,-0.17 l -0.5,-1.94 c -0.05,-0.18 -0.05,-0.2 -0.2,-0.37 -0.43,-0.55 -0.84,-0.71 -1.12,-0.71 l -0.02,-0.21 c 0.2,0 0.7,0.03 1.29,0.74 0.08,-0.42 0.43,-0.74 0.91,-0.74 0.35,0 0.58,0.22 0.73,0.54 0.17,0.36 0.3,0.97 0.3,0.99 0,0.1 -0.09,0.1 -0.12,0.1 -0.1,0 -0.1,-0.05 -0.13,-0.18 -0.17,-0.65 -0.35,-1.24 -0.76,-1.24 -0.27,0 -0.3,0.26 -0.3,0.46 0,0.24 0.02,0.31 0.06,0.48 z" /><path
     style="fill:#000000;stroke-width:0"
     inkscape:connector-curvature="0"
     id="path6371"
     d="m 246.27,705.41 0,-0.01 0,0 0,-0.01 0,-0.01 0,0 0,0 -0.01,-0.01 0,0 0,-0.01 0,0 0,-0.01 0,0 0,-0.01 0,0 0,-0.01 -0.01,0 0,-0.01 0,-0.01 0,0 0,-0.01 0,0 0,-0.01 0,0 0,0 0,-0.01 0,0 -0.01,-0.01 0,0 0,0 0,0 0,-0.01 0,0 0,0 0,-0.01 0,0 0,0 c 0,-0.15 0.11,-0.27 0.28,-0.27 0.21,0 0.33,0.18 0.35,0.21 0.05,0.09 0.37,1.42 0.64,2.49 0.2,-0.4 0.51,-0.66 0.98,-0.66 l -0.01,0.21 c -0.69,0 -0.85,0.8 -0.85,0.89 0,0.04 0.05,0.24 0.08,0.37 0.27,1.11 0.37,1.47 0.59,1.86 0.43,0.73 0.93,0.95 1.24,0.95 0.36,0 0.68,-0.29 0.68,-0.98 0,-0.54 -0.29,-1.66 -0.55,-2.14 -0.33,-0.63 -0.81,-0.95 -1.19,-0.95 h 0 l 0.01,-0.21 c 1.17,0 2.45,1.4 2.45,2.88 0,1.05 -0.66,1.62 -1.38,1.62 -0.97,0 -2.01,-1 -2.31,-2.21 z" /></g>
<path
   sodipodi:nodetypes="cc"
   transform="matrix(0.4,0,0,-0.4,200,750)"
   inkscape:connector-curvature="0"
   id="path6449"
   d="m 375.71429,322.36218 c 16.88511,-0.32153 22.91271,10.98027 26.07142,17.85715"
   style="fill:none;stroke:#000000;stroke-width:1px;stroke-linecap:butt;stroke-linejoin:miter;stroke-opacity:1" /></g>    <g
       ns0:preamble=""
       ns0:text="$\\alpha+d\\alpha$"
       word-spacing="normal"
       letter-spacing="normal"
       font-size-adjust="none"
       font-stretch="normal"
       font-weight="normal"
       font-variant="normal"
       font-style="normal"
       stroke-miterlimit="10.433"
       xml:space="preserve"
       transform="matrix(1.2770958,-1.1249116,-0.98994264,-1.1238675,797.48937,1385.1412)"
       id="g6525"
       style="font-style:normal;font-variant:normal;font-weight:normal;font-stretch:normal;letter-spacing:normal;word-spacing:normal;text-anchor:start;fill:none;stroke:#000000;stroke-linecap:butt;stroke-linejoin:miter;stroke-miterlimit:10.43299961;stroke-opacity:1;stroke-dasharray:none;stroke-dashoffset:0"
       inkscape:transform-center-x="-4.2857143"
       inkscape:transform-center-y="-6.0714286">
<path
   id="path6527"
   d="m 228.18,709.47 0,0.07 0,0.07 -0.01,0.07 0,0.07 -0.02,0.13 -0.01,0.12 -0.03,0.12 -0.02,0.12 -0.03,0.1 -0.04,0.11 -0.04,0.09 -0.04,0.1 -0.04,0.08 -0.05,0.08 -0.06,0.08 -0.05,0.07 -0.06,0.07 -0.06,0.06 -0.06,0.05 -0.06,0.06 -0.07,0.05 -0.06,0.04 -0.07,0.04 -0.07,0.04 -0.07,0.03 -0.07,0.03 -0.08,0.02 -0.07,0.02 -0.07,0.02 -0.07,0.01 -0.07,0.01 -0.07,0.01 -0.07,0 -0.07,0.01 c -1.37,0 -2.68,-1.43 -2.68,-2.83 0,-0.92 0.6,-1.67 1.61,-1.67 l 0.02,0.21 c -0.59,0 -0.89,0.45 -0.89,1.09 0,0.48 0.26,1.56 0.57,2.06 0.47,0.73 1.01,0.92 1.36,0.92 0.98,0 0.98,-1.3 0.98,-2.08 0,-0.37 0,-0.94 0.02,-1.11 h 0 c -0.87,-0.77 -1.64,-0.88 -2.04,-0.88 l -0.02,-0.21 c 0.63,0 1.34,0.22 2.1,0.83 0.13,-0.53 0.46,-0.83 0.91,-0.83 0.52,0 0.83,0.54 0.83,0.7 0,0.07 -0.06,0.1 -0.12,0.1 -0.07,0 -0.1,-0.03 -0.13,-0.1 -0.18,-0.49 -0.53,-0.49 -0.55,-0.49 -0.31,0 -0.31,0.78 -0.31,1.02 0,0.21 0,0.23 0.1,0.34 0.93,1.18 1.14,2.33 1.14,2.34 0,0.02 -0.01,0.1 -0.12,0.1 -0.1,0 -0.1,-0.03 -0.15,-0.21 -0.18,-0.62 -0.5,-1.38 -0.97,-1.97 z"
   inkscape:connector-curvature="0"
   style="fill:#000000;stroke-width:0" />
<path
   id="path6529"
   d="m 236.12,709.41 h 2.78 c 0.14,0 0.33,0 0.33,0.2 0,0.2 -0.19,0.2 -0.33,0.2 h -2.78 v 2.78 c 0,0.14 0,0.33 -0.19,0.33 -0.2,0 -0.2,-0.19 -0.2,-0.33 v -2.78 h -2.79 c -0.14,0 -0.33,0 -0.33,-0.2 0,-0.2 0.19,-0.2 0.33,-0.2 h 2.79 v -2.78 c 0,-0.14 0,-0.33 0.2,-0.33 0.19,0 0.19,0.19 0.19,0.33 z"
   inkscape:connector-curvature="0"
   style="fill:#000000;stroke-width:0" />
<path
   id="path6531"
   d="m 247.15,713.91 0,0 0,0 0,0 0,0 0,0.01 0,0 0,0 0,0.01 0,0 0,0.01 0,0 0,0 0,0.01 -0.01,0 0,0.01 0,0 0,0.01 -0.01,0 0,0.01 0,0 -0.01,0.01 0,0 0,0 -0.01,0 0,0.01 0,0 -0.01,0 0,0 0,0 -0.01,0.01 0,0 0,0 -0.01,0 0,0 -0.01,0 0,0 0,0 -0.01,0.01 0,0 -0.01,0 0,0 -0.01,0 -0.01,0 0,0 -0.01,0 c -0.15,0 -1.09,-0.09 -1.26,-0.11 -0.08,-0.01 -0.14,-0.06 -0.14,-0.19 0,-0.12 0.09,-0.12 0.24,-0.12 0.48,0 0.5,-0.07 0.5,-0.17 l -0.03,-0.2 -0.6,-2.35 c -0.18,0.37 -0.47,0.64 -0.91,0.64 -1.17,0 -2.4,-1.47 -2.4,-2.92 0,-0.93 0.54,-1.58 1.32,-1.58 l 0.02,0.21 c -0.5,0 -0.64,0.55 -0.64,0.94 0,0.49 0.32,1.72 0.55,2.17 0.31,0.59 0.76,0.96 1.15,0.96 0.65,0 0.79,-0.82 0.79,-0.88 0,-0.06 -0.02,-0.12 -0.03,-0.17 l -0.5,-1.94 c -0.05,-0.18 -0.05,-0.2 -0.2,-0.37 -0.43,-0.55 -0.84,-0.71 -1.12,-0.71 l -0.02,-0.21 c 0.2,0 0.7,0.03 1.29,0.74 0.08,-0.42 0.43,-0.74 0.91,-0.74 0.35,0 0.58,0.22 0.74,0.54 0.16,0.36 0.29,0.97 0.29,0.99 0,0.1 -0.09,0.1 -0.12,0.1 -0.09,0 -0.11,-0.05 -0.14,-0.18 -0.16,-0.65 -0.34,-1.24 -0.75,-1.24 -0.27,0 -0.3,0.26 -0.3,0.46 0,0.24 0.02,0.31 0.06,0.48 z"
   inkscape:connector-curvature="0"
   style="fill:#000000;stroke-width:0" />
<path
   id="path6533"
   d="m 251.95,709.47 0,0.07 0,0.07 -0.01,0.07 0,0.07 -0.01,0.13 -0.02,0.12 -0.02,0.12 -0.03,0.12 -0.03,0.1 -0.04,0.11 -0.03,0.09 -0.05,0.1 -0.04,0.08 -0.05,0.08 -0.05,0.08 -0.06,0.07 -0.06,0.07 -0.05,0.06 -0.07,0.05 -0.06,0.06 -0.07,0.05 -0.06,0.04 -0.07,0.04 -0.07,0.04 -0.07,0.03 -0.07,0.03 -0.07,0.02 -0.07,0.02 -0.08,0.02 -0.07,0.01 -0.07,0.01 -0.07,0.01 -0.07,0 -0.07,0.01 c -1.36,0 -2.68,-1.43 -2.68,-2.83 0,-0.92 0.6,-1.67 1.61,-1.67 l 0.02,0.21 c -0.59,0 -0.89,0.45 -0.89,1.09 0,0.48 0.26,1.56 0.58,2.06 0.46,0.73 1,0.92 1.35,0.92 0.98,0 0.98,-1.3 0.98,-2.08 0,-0.37 0,-0.94 0.02,-1.11 h 0 c -0.87,-0.77 -1.64,-0.88 -2.04,-0.88 l -0.02,-0.21 c 0.63,0 1.35,0.22 2.1,0.83 0.13,-0.53 0.46,-0.83 0.91,-0.83 0.53,0 0.84,0.54 0.84,0.7 0,0.07 -0.06,0.1 -0.12,0.1 -0.07,0 -0.1,-0.03 -0.13,-0.1 -0.18,-0.49 -0.54,-0.49 -0.56,-0.49 -0.31,0 -0.31,0.78 -0.31,1.02 0,0.21 0,0.23 0.1,0.34 0.94,1.18 1.14,2.33 1.14,2.34 0,0.02 -0.01,0.1 -0.12,0.1 -0.09,0 -0.09,-0.03 -0.14,-0.21 -0.18,-0.62 -0.51,-1.38 -0.98,-1.97 z"
   inkscape:connector-curvature="0"
   style="fill:#000000;stroke-width:0" />
</g>    <path
       style="fill:none;stroke:#000000;stroke-width:1px;stroke-linecap:butt;stroke-linejoin:miter;stroke-opacity:1"
       d="M 128.57143,525.21932 C 150,525.57647 150,525.57647 150,525.57647"
       id="path6612"
       inkscape:connector-curvature="0" />
    <path
       style="fill:none;stroke:#000000;stroke-width:1px;stroke-linecap:butt;stroke-linejoin:miter;stroke-opacity:1"
       d="M 60.357143,722.71932 90.714286,721.6479"
       id="path6614"
       inkscape:connector-curvature="0" />
    <path
       style="fill:none;stroke:#000000;stroke-width:1px;stroke-linecap:butt;stroke-linejoin:miter;stroke-opacity:1;marker-start:url(#Arrow1Mstart);marker-mid:none;marker-end:url(#Arrow1Mend)"
       d="M 149.64286,526.6479 90,722.36218"
       id="path6616"
       inkscape:connector-curvature="0" />
    <g
       style="font-style:normal;font-variant:normal;font-weight:normal;font-stretch:normal;letter-spacing:normal;word-spacing:normal;text-anchor:start;fill:none;stroke:#000000;stroke-linecap:butt;stroke-linejoin:miter;stroke-miterlimit:10.43299961;stroke-opacity:1;stroke-dasharray:none;stroke-dashoffset:0"
       ns0:preamble=""
       ns0:text="$s$"
       word-spacing="normal"
       letter-spacing="normal"
       font-size-adjust="none"
       font-stretch="normal"
       font-weight="normal"
       font-variant="normal"
       font-style="normal"
       stroke-miterlimit="10.433"
       xml:space="preserve"
       transform="matrix(3.5,0,0,-3.5,-660,3109.2857)"
       id="g7420">
<path
   style="fill:#000000;stroke-width:0"
   inkscape:connector-curvature="0"
   id="path7422"
   d="m 227.32,710.84 -0.02,0 -0.03,0 -0.02,-0.01 -0.03,0 -0.02,-0.01 -0.03,-0.01 -0.02,0 -0.02,-0.01 -0.02,-0.01 -0.02,-0.01 -0.02,-0.02 -0.02,-0.01 -0.02,-0.01 -0.02,-0.02 -0.01,-0.01 -0.02,-0.02 -0.02,-0.01 -0.01,-0.02 -0.01,-0.01 -0.02,-0.02 -0.01,-0.02 -0.01,-0.02 -0.01,-0.02 -0.01,-0.02 -0.01,-0.02 0,-0.02 -0.01,-0.02 -0.01,-0.02 0,-0.02 0,-0.02 0,-0.02 0,-0.02 c 0,-0.14 0.08,-0.29 0.3,-0.29 0.22,0 0.46,0.17 0.46,0.56 0,0.45 -0.43,0.86 -1.18,0.86 -1.32,0 -1.69,-1.02 -1.69,-1.45 0,-0.78 0.74,-0.93 1.03,-0.99 0.52,-0.1 1.03,-0.21 1.03,-0.75 0,-0.26 -0.22,-1.1 -1.42,-1.1 -0.14,0 -0.9,0 -1.13,0.53 0.38,-0.05 0.63,0.25 0.63,0.53 0,0.23 -0.17,0.35 -0.37,0.35 -0.26,0 -0.56,-0.21 -0.56,-0.66 0,-0.57 0.57,-0.96 1.42,-0.96 1.61,0 2,1.2 2,1.64 0,0.36 -0.19,0.61 -0.31,0.73 -0.27,0.28 -0.55,0.33 -0.99,0.42 -0.36,0.08 -0.76,0.15 -0.76,0.59 0,0.29 0.24,0.9 1.12,0.9 0.25,0 0.74,-0.07 0.89,-0.46 z" />
</g>    <path
       style="fill:none;stroke:#000000;stroke-width:1px;stroke-linecap:butt;stroke-linejoin:miter;stroke-opacity:1;marker-start:url(#Arrow1Mstart);marker-end:url(#Arrow1Mend)"
       d="m 150.71429,525.21932 c 36.1009,-91.00082 66.2842,-164.7838 100.71428,-256.42856"
       id="path7506"
       inkscape:connector-curvature="0"
       sodipodi:nodetypes="cc" />
    <path
       style="fill:none;stroke:#000000;stroke-width:1px;stroke-linecap:butt;stroke-linejoin:miter;stroke-opacity:1"
       d="m 233.92857,267.36218 17.85715,-0.35714"
       id="path7508"
       inkscape:connector-curvature="0"
       sodipodi:nodetypes="cc" />
    <g
       style="font-style:normal;font-variant:normal;font-weight:normal;font-stretch:normal;letter-spacing:normal;word-spacing:normal;text-anchor:start;fill:none;stroke:#000000;stroke-linecap:butt;stroke-linejoin:miter;stroke-miterlimit:10.43299961;stroke-opacity:1;stroke-dasharray:none;stroke-dashoffset:0"
       id="g7964"
       transform="matrix(3.5,0,0,-3.5,-560,2833.9286)"
       xml:space="preserve"
       stroke-miterlimit="10.433"
       font-style="normal"
       font-variant="normal"
       font-weight="normal"
       font-stretch="normal"
       font-size-adjust="none"
       letter-spacing="normal"
       word-spacing="normal"
       ns0:text="$ds$"
       ns0:preamble="">
<path
   style="fill:#000000;stroke-width:0"
   inkscape:connector-curvature="0"
   d="m 228.57,713.91 0,0 0,0 0,0 0,0 0,0.01 0,0 0,0 -0.01,0.01 0,0 0,0.01 0,0 0,0 0,0.01 0,0 0,0.01 -0.01,0 0,0.01 0,0 -0.01,0.01 0,0 -0.01,0.01 0,0 0,0 0,0 -0.01,0.01 0,0 0,0 -0.01,0 0,0 0,0.01 -0.01,0 0,0 0,0 -0.01,0 0,0 -0.01,0 0,0 -0.01,0.01 0,0 -0.01,0 0,0 -0.01,0 0,0 -0.01,0 0,0 c -0.15,0 -1.1,-0.09 -1.27,-0.11 -0.08,-0.01 -0.14,-0.06 -0.14,-0.19 0,-0.12 0.09,-0.12 0.24,-0.12 0.48,0 0.5,-0.07 0.5,-0.17 l -0.03,-0.2 -0.6,-2.35 c -0.18,0.37 -0.46,0.64 -0.91,0.64 -1.17,0 -2.4,-1.47 -2.4,-2.92 0,-0.93 0.55,-1.58 1.32,-1.58 l 0.02,0.21 c -0.49,0 -0.63,0.55 -0.63,0.94 0,0.49 0.31,1.72 0.54,2.17 0.31,0.59 0.76,0.96 1.16,0.96 0.64,0 0.78,-0.82 0.78,-0.88 0,-0.06 -0.02,-0.12 -0.03,-0.17 l -0.49,-1.94 c -0.05,-0.18 -0.05,-0.2 -0.2,-0.37 -0.44,-0.55 -0.85,-0.71 -1.13,-0.71 l -0.02,-0.21 c 0.2,0 0.7,0.03 1.3,0.74 0.08,-0.42 0.42,-0.74 0.9,-0.74 0.35,0 0.58,0.22 0.74,0.54 0.17,0.36 0.3,0.97 0.3,0.99 0,0.1 -0.09,0.1 -0.12,0.1 -0.1,0 -0.11,-0.05 -0.14,-0.18 -0.17,-0.65 -0.35,-1.24 -0.76,-1.24 -0.27,0 -0.3,0.26 -0.3,0.46 0,0.24 0.02,0.31 0.06,0.48 z"
   id="path7966" />
<path
   style="fill:#000000;stroke-width:0"
   inkscape:connector-curvature="0"
   d="m 232.51,710.84 -0.03,0 -0.02,0 -0.03,-0.01 -0.02,0 -0.03,-0.01 -0.02,-0.01 -0.02,0 -0.02,-0.01 -0.03,-0.01 -0.02,-0.01 -0.02,-0.02 -0.02,-0.01 -0.01,-0.01 -0.02,-0.02 -0.02,-0.01 -0.02,-0.02 -0.01,-0.01 -0.02,-0.02 -0.01,-0.01 -0.01,-0.02 -0.01,-0.02 -0.02,-0.02 -0.01,-0.02 0,-0.02 -0.01,-0.02 -0.01,-0.02 -0.01,-0.02 0,-0.02 0,-0.02 -0.01,-0.02 0,-0.02 0,-0.02 c 0,-0.14 0.09,-0.29 0.31,-0.29 0.22,0 0.46,0.17 0.46,0.56 0,0.45 -0.43,0.86 -1.19,0.86 -1.31,0 -1.68,-1.02 -1.68,-1.45 0,-0.78 0.74,-0.93 1.03,-0.99 0.51,-0.1 1.03,-0.21 1.03,-0.75 0,-0.26 -0.23,-1.1 -1.42,-1.1 -0.14,0 -0.91,0 -1.14,0.53 0.38,-0.05 0.63,0.25 0.63,0.53 0,0.23 -0.16,0.35 -0.37,0.35 -0.26,0 -0.56,-0.21 -0.56,-0.66 0,-0.57 0.57,-0.96 1.43,-0.96 1.61,0 2,1.2 2,1.64 0,0.36 -0.19,0.61 -0.31,0.73 -0.27,0.28 -0.56,0.33 -1,0.42 -0.35,0.08 -0.75,0.15 -0.75,0.59 0,0.29 0.24,0.9 1.11,0.9 0.25,0 0.75,-0.07 0.9,-0.46 z"
   id="path7968" />
</g>    <path
       transform="translate(3.75,17.0072)"
       inkscape:connector-curvature="0"
       id="path3066"
       d="m 614.17275,500.39234 c -4.79823,0 -243.44677,0.63134 -243.44677,0.63134 l 0,0"
       style="fill:none;stroke:#000000;stroke-width:1;stroke-linecap:butt;stroke-linejoin:miter;stroke-opacity:1;stroke-miterlimit:4;stroke-dasharray:4,4;stroke-dashoffset:0" />
    <g
       style="font-style:normal;font-variant:normal;font-weight:normal;font-stretch:normal;letter-spacing:normal;word-spacing:normal;text-anchor:start;fill:none;stroke:#000000;stroke-linecap:butt;stroke-linejoin:miter;stroke-miterlimit:10.43299961;stroke-opacity:1;stroke-dasharray:none;stroke-dashoffset:0"
       ns0:preamble=""
       ns0:text="$y_0$"
       text-anchor="start"
       word-spacing="normal"
       letter-spacing="normal"
       font-size-adjust="none"
       font-stretch="normal"
       font-weight="normal"
       font-variant="normal"
       font-style="normal"
       fill-opacity="1"
       fill-rule="evenodd"
       fill="none"
       stroke-opacity="1"
       stroke-dashoffset="0"
       stroke-dasharray="none"
       stroke-miterlimit="10.433"
       stroke-linejoin="miter"
       stroke-linecap="butt"
       stroke="black"
       xml:space="preserve"
       transform="matrix(3.5,0,0,-3.5,-445.50722,2997.7984)"
       id="g3974">
<path
   id="path3976"
   fill="black"
   stroke-width="0"
   d="M228.27,710.91 L228.27,710.92 L228.27,710.92 L228.27,710.93 L228.27,710.93 L228.28,710.95 L228.28,710.96 L228.28,710.97 L228.29,710.98 L228.29,710.99 L228.29,710.99 L228.29,711 L228.29,711.01 L228.3,711.02 L228.3,711.03 L228.3,711.03 L228.3,711.04 L228.3,711.04 L228.3,711.05 L228.3,711.06 L228.3,711.06 L228.3,711.07 L228.3,711.07 L228.31,711.08 L228.31,711.09 L228.31,711.1 L228.31,711.11 L228.31,711.12 L228.31,711.13 L228.31,711.13 L228.31,711.14 C228.31,711.32,228.17,711.41,228.02,711.41 C227.92,711.41,227.76,711.35,227.67,711.2 C227.65,711.15,227.57,710.84,227.53,710.66 C227.46,710.4,227.39,710.14,227.33,709.87 L226.88,708.08 C226.85,707.93,226.42,707.23,225.76,707.23 C225.25,707.23,225.14,707.67,225.14,708.04 C225.14,708.5,225.31,709.11,225.65,709.99 C225.81,710.39,225.85,710.5,225.85,710.7 C225.85,711.15,225.53,711.52,225.03,711.52 C224.09,711.52,223.72,710.08,223.72,709.99 C223.72,709.89,223.82,709.89,223.84,709.89 C223.94,709.89,223.95,709.91,224,710.07 C224.27,711,224.67,711.3,225,711.3 C225.08,711.3,225.25,711.3,225.25,710.98 C225.25,710.73,225.15,710.47,225.08,710.28 C224.69,709.23,224.51,708.66,224.51,708.2 C224.51,707.31,225.13,707.02,225.72,707.02 C226.11,707.02,226.45,707.18,226.73,707.46 C226.6,706.95,226.48,706.46,226.08,705.93 C225.82,705.59,225.44,705.31,224.98,705.31 C224.85,705.31,224.4,705.34,224.23,705.72 C224.39,705.72,224.52,705.72,224.66,705.84 C224.76,705.93,224.85,706.06,224.85,706.25 C224.85,706.56,224.59,706.6,224.49,706.6 C224.26,706.6,223.93,706.44,223.93,705.95 C223.93,705.46,224.37,705.09,224.98,705.09 C226.01,705.09,227.03,705.99,227.31,707.11 Z " />
<path
   id="path3978"
   fill="black"
   stroke-width="0"
   d="M231.91,707.85 L231.91,707.99 L231.91,708.13 L231.9,708.26 L231.89,708.38 L231.88,708.51 L231.87,708.63 L231.85,708.74 L231.83,708.85 L231.8,708.96 L231.77,709.07 L231.74,709.17 L231.7,709.27 L231.66,709.37 L231.61,709.46 L231.56,709.56 L231.53,709.6 L231.5,709.65 C231.28,709.97,230.85,710.25,230.29,710.25 V710.05 C230.67,710.05,231.03,709.82,231.16,709.42 C231.27,709.04,231.28,708.54,231.28,707.94 C231.28,707.42,231.28,706.91,231.19,706.47 C231.05,705.84,230.57,705.69,230.29,705.69 H230.29 C229.98,705.69,229.55,705.87,229.41,706.45 C229.31,706.85,229.31,707.42,229.31,707.94 C229.31,708.45,229.31,708.98,229.42,709.36 C229.56,709.91,230.01,710.05,230.29,710.05 V710.25 C228.68,710.25,228.68,708.35,228.68,707.85 C228.68,707.35,228.68,705.49,230.29,705.49 C231.91,705.49,231.91,707.35,231.91,707.85 Z " />
</g>    <g
       id="g3172"
       transform="matrix(3.5,0,0,-3.5,-428.43235,3190.5426)"
       xml:space="preserve"
       stroke-miterlimit="10.433"
       font-style="normal"
       font-variant="normal"
       font-weight="normal"
       font-stretch="normal"
       font-size-adjust="none"
       letter-spacing="normal"
       word-spacing="normal"
       ns0:text="$0$"
       ns0:preamble=""
       style="font-style:normal;font-variant:normal;font-weight:normal;font-stretch:normal;letter-spacing:normal;word-spacing:normal;text-anchor:start;fill:none;stroke:#000000;stroke-linecap:butt;stroke-linejoin:miter;stroke-miterlimit:10.43299961;stroke-opacity:1;stroke-dasharray:none;stroke-dashoffset:0">
<path
   style="fill:#000000;stroke-width:0"
   inkscape:connector-curvature="0"
   d="m 228.01,710.3 0,0.15 0,0.15 -0.01,0.15 0,0.15 -0.01,0.15 -0.02,0.14 -0.01,0.15 -0.02,0.15 -0.02,0.14 -0.03,0.15 -0.03,0.14 -0.04,0.15 -0.04,0.14 -0.05,0.14 -0.06,0.14 -0.03,0.07 -0.03,0.07 c -0.46,0.95 -1.27,1.11 -1.69,1.11 -0.6,0 -1.32,-0.26 -1.73,-1.18 -0.32,-0.69 -0.37,-1.46 -0.37,-2.26 0,-0.74 0.04,-1.64 0.45,-2.39 0.43,-0.81 1.15,-1 1.64,-1 v 0.21 c -0.39,0 -0.98,0.25 -1.15,1.21 -0.11,0.59 -0.11,1.51 -0.11,2.09 0,0.64 0,1.29 0.08,1.83 0.18,1.18 0.93,1.27 1.18,1.27 0.33,0 0.98,-0.18 1.17,-1.16 0.1,-0.56 0.1,-1.31 0.1,-1.94 0,-0.74 0,-1.42 -0.11,-2.05 -0.15,-0.95 -0.71,-1.25 -1.16,-1.25 h 0 v -0.21 c 0.54,0 1.29,0.2 1.73,1.15 0.32,0.68 0.37,1.46 0.37,2.24 z"
   id="path3174" />
</g>    <g
       style="font-style:normal;font-variant:normal;font-weight:normal;font-stretch:normal;letter-spacing:normal;word-spacing:normal;text-anchor:start;fill:none;stroke:#000000;stroke-linecap:butt;stroke-linejoin:miter;stroke-miterlimit:10.43299961;stroke-opacity:1;stroke-dasharray:none;stroke-dashoffset:0"
       ns0:preamble=""
       ns0:text="$y_c$"
       text-anchor="start"
       word-spacing="normal"
       letter-spacing="normal"
       font-size-adjust="none"
       font-stretch="normal"
       font-weight="normal"
       font-variant="normal"
       font-style="normal"
       fill-opacity="1"
       fill-rule="evenodd"
       fill="none"
       stroke-opacity="1"
       stroke-dashoffset="0"
       stroke-dasharray="none"
       stroke-miterlimit="10.433"
       stroke-linejoin="miter"
       stroke-linecap="butt"
       stroke="black"
       xml:space="preserve"
       transform="matrix(3.5,0,0,-3.5,-442.57449,3115.7913)"
       id="g3367">
<path
   id="path3369"
   fill="black"
   stroke-width="0"
   d="M228.27,710.91 L228.27,710.92 L228.27,710.92 L228.27,710.93 L228.27,710.93 L228.28,710.95 L228.28,710.96 L228.28,710.97 L228.29,710.98 L228.29,710.99 L228.29,710.99 L228.29,711 L228.29,711.01 L228.3,711.02 L228.3,711.03 L228.3,711.03 L228.3,711.04 L228.3,711.04 L228.3,711.05 L228.3,711.06 L228.3,711.06 L228.3,711.07 L228.3,711.07 L228.31,711.08 L228.31,711.09 L228.31,711.1 L228.31,711.11 L228.31,711.12 L228.31,711.13 L228.31,711.13 L228.31,711.14 C228.31,711.32,228.17,711.41,228.02,711.41 C227.92,711.41,227.76,711.35,227.67,711.2 C227.65,711.15,227.57,710.84,227.53,710.66 C227.46,710.4,227.39,710.14,227.33,709.87 L226.88,708.08 C226.85,707.93,226.42,707.23,225.76,707.23 C225.25,707.23,225.14,707.67,225.14,708.04 C225.14,708.5,225.31,709.11,225.65,709.99 C225.81,710.39,225.85,710.5,225.85,710.7 C225.85,711.15,225.53,711.52,225.03,711.52 C224.09,711.52,223.72,710.08,223.72,709.99 C223.72,709.89,223.82,709.89,223.84,709.89 C223.94,709.89,223.95,709.91,224,710.07 C224.27,711,224.67,711.3,225,711.3 C225.08,711.3,225.25,711.3,225.25,710.98 C225.25,710.73,225.15,710.47,225.08,710.28 C224.69,709.23,224.51,708.66,224.51,708.2 C224.51,707.31,225.13,707.02,225.72,707.02 C226.11,707.02,226.45,707.18,226.73,707.46 C226.6,706.95,226.48,706.46,226.08,705.93 C225.82,705.59,225.44,705.31,224.98,705.31 C224.85,705.31,224.4,705.34,224.23,705.72 C224.39,705.72,224.52,705.72,224.66,705.84 C224.76,705.93,224.85,706.06,224.85,706.25 C224.85,706.56,224.59,706.6,224.49,706.6 C224.26,706.6,223.93,706.44,223.93,705.95 C223.93,705.46,224.37,705.09,224.98,705.09 C226.01,705.09,227.03,705.99,227.31,707.11 Z " />
<path
   id="path3371"
   fill="black"
   stroke-width="0"
   d="M231.37,708.29 L231.34,708.29 L231.32,708.28 L231.3,708.28 L231.28,708.27 L231.26,708.26 L231.24,708.26 L231.22,708.25 L231.21,708.24 L231.19,708.23 L231.17,708.22 L231.16,708.21 L231.14,708.19 L231.13,708.18 L231.12,708.17 L231.11,708.16 L231.1,708.14 L231.09,708.13 L231.08,708.11 L231.07,708.1 L231.06,708.08 L231.05,708.07 L231.04,708.05 L231.04,708.04 L231.03,708.02 L231.03,708.01 L231.02,707.99 L231.02,707.98 L231.02,707.96 L231.01,707.95 L231.01,707.93 L231.01,707.92 L231.01,707.91 C231.01,707.72,231.16,707.65,231.28,707.65 C231.44,707.65,231.68,707.76,231.68,708.09 C231.68,708.57,231.14,708.7,230.76,708.7 C229.72,708.7,228.75,707.74,228.75,706.77 C228.75,706.17,229.17,705.56,230.04,705.56 C231.21,705.56,231.76,706.25,231.76,706.35 C231.76,706.39,231.7,706.47,231.65,706.47 C231.6,706.47,231.59,706.45,231.54,706.4 C230.99,705.76,230.18,705.76,230.05,705.76 C229.55,705.76,229.33,706.1,229.33,706.53 C229.33,706.73,229.42,707.49,229.79,707.97 C230.05,708.31,230.41,708.5,230.76,708.5 C230.86,708.5,231.19,708.49,231.37,708.29 Z " />
</g>  </g>
</svg>
